<svg width="18" height="21" viewBox="0 0 18 21" fill="none" xmlns="http://www.w3.org/2000/svg">
<g clip-path="url(#clip0_20_59)">
<path d="M7.98996 19.2857C8.41649 19.7963 9.10696 19.7946 9.53077 19.2819L14.9555 12.7194C15.3793 12.2067 15.3771 11.3758 14.9506 10.8652C14.524 10.3546 13.8336 10.3563 13.4098 10.869L8.75128 16.5046L4.06291 10.8964C3.63638 10.3858 2.94591 10.3875 2.5221 10.9002C2.0983 11.4129 2.10051 12.2438 2.52703 12.7544L7.98657 19.2898L7.98996 19.2857ZM2.50953 4.89151L7.96907 11.427C8.3956 11.9375 9.08607 11.9358 9.50987 11.4231L14.9346 4.86062C15.3584 4.34792 15.3562 3.51702 14.9297 3.00644C14.5031 2.49586 13.8127 2.49758 13.3889 3.01027L8.73038 8.64582L4.04202 3.0376C3.61549 2.52702 2.92502 2.52874 2.50121 3.04143C2.07741 3.55413 2.07962 4.38503 2.50614 4.89561L2.50953 4.89151Z" fill="black"/>
</g>
<defs>
<clipPath id="clip0_20_59">
<rect width="20.5222" height="17.0537" fill="white" transform="matrix(0.00271468 1.02117 -1.02117 0.0025388 17.4148 0)"/>
</clipPath>
</defs>
</svg>
