<svg width="23" height="20" viewBox="0 0 23 20" fill="none" xmlns="http://www.w3.org/2000/svg">
<path d="M1.95226 9.22041C1.40278 9.70713 1.41256 10.4863 1.97408 10.959L9.16159 17.0106C9.72311 17.4834 10.6252 17.4721 11.1747 16.9854C11.7242 16.4986 11.7144 15.7195 11.1529 15.2467L4.98064 10.0499L11.0161 4.69992C11.5656 4.21319 11.5558 3.43407 10.9943 2.96129C10.4328 2.48851 9.53062 2.49984 8.98114 2.98656L1.94777 9.21663L1.95226 9.22041ZM17.5182 2.88326L10.4848 9.11332C9.9353 9.60005 9.94508 10.3792 10.5066 10.8519L17.6941 16.9035C18.2556 17.3763 19.1578 17.365 19.7073 16.8783C20.2567 16.3916 20.247 15.6124 19.6854 15.1397L13.5132 9.94285L19.5486 4.59283C20.0981 4.10611 20.0883 3.32699 19.5268 2.85421C18.9653 2.38143 18.0631 2.39275 17.5137 2.87948L17.5182 2.88326Z" fill="black"/>
</svg>
