<svg width="22" height="19" viewBox="0 0 22 19" fill="none" xmlns="http://www.w3.org/2000/svg">
<path d="M20.2211 10.3387C20.7582 9.8748 20.7582 9.12148 20.2211 8.65762L13.3461 2.72012C12.809 2.25625 11.9367 2.25625 11.3996 2.72012C10.8625 3.18398 10.8625 3.9373 11.3996 4.40117L17.3035 9.5L11.4039 14.5988C10.8668 15.0627 10.8668 15.816 11.4039 16.2799C11.941 16.7437 12.8133 16.7437 13.3504 16.2799L20.2254 10.3424L20.2211 10.3387ZM5.09608 16.2762L11.9711 10.3387C12.5082 9.8748 12.5082 9.12148 11.9711 8.65762L5.09608 2.72012C4.55897 2.25625 3.68671 2.25625 3.1496 2.72012C2.61249 3.18398 2.61249 3.9373 3.1496 4.40117L9.0535 9.5L3.15389 14.5988C2.61678 15.0627 2.61678 15.816 3.15389 16.2799C3.691 16.7437 4.56327 16.7437 5.10038 16.2799L5.09608 16.2762Z" fill="black"/>
</svg>
