<svg width="18" height="21" viewBox="0 0 18 21" fill="none" xmlns="http://www.w3.org/2000/svg">
<g clip-path="url(#clip0_20_57)">
<path d="M9.44747 1.74799C9.02051 1.2418 8.333 1.24708 7.91328 1.75978L2.54087 8.32228C2.12115 8.83497 2.12704 9.66231 2.554 10.1685C2.98097 10.6747 3.66847 10.6694 4.08819 10.1567L8.70175 4.52117L13.3949 10.0812C13.8219 10.5873 14.5094 10.5821 14.9291 10.0694C15.3488 9.55668 15.3429 8.72934 14.916 8.22315L9.45083 1.74389L9.44747 1.74799ZM14.9683 16.0523L9.50312 9.57305C9.07615 9.06686 8.38865 9.07214 7.96893 9.58483L2.59652 16.1473C2.1768 16.66 2.18268 17.4874 2.60965 17.9936C3.03661 18.4997 3.72412 18.4945 4.14384 17.9818L8.75739 12.3462L13.4506 17.9062C13.8775 18.4124 14.565 18.4071 14.9848 17.8944C15.4045 17.3817 15.3986 16.5544 14.9716 16.0482L14.9683 16.0523Z" fill="black"/>
</g>
<defs>
<clipPath id="clip0_20_57">
<rect width="20.5222" height="17.0538" fill="white" transform="matrix(-0.00723064 -1.01679 1.01679 -0.0078099 0.14839 21)"/>
</clipPath>
</defs>
</svg>
